<svg version="1" xmlns="http://www.w3.org/2000/svg" width="192" height="192" viewBox="0 0 1920 1920"><path d="M0 960V0h1920v1920H0V960z" fill="#231f20"/><path d="M0 960V0h1920v1920H0V960zm420 605c0-20-48-65-69-65-12 0-16 10-16 40v40h43c31 0 42-4 42-15zm860-14c0-43-28-199-46-256-27-83-92-206-151-283-161-210-398-339-674-367l-67-7-4 35c-4 40 6 47 77 47 62 0 199 37 282 75 172 80 331 233 417 402 35 71 72 186 80 253 17 136 14 130 52 130 31 0 34-3 34-29zm297-68c-22-353-221-703-521-915-189-133-465-228-665-228h-56l3 94 3 95 47 6c208 25 295 50 432 121 48 24 124 75 170 112 228 182 364 440 395 745l7 67h191l-6-97z" fill="#287540"/><path d="M0 960V0h1920v1920H0V960zm1280 577c0-146-67-345-163-487-45-66-163-186-233-236-133-95-309-159-471-171l-83-6v953h950v-53zm310-6c0-145-51-335-135-506-67-134-132-223-245-336-211-208-491-335-787-356l-93-6v213h49c68 0 204 25 286 53 250 86 464 265 592 498 66 118 123 326 123 445v54h210v-59z" fill="#119a48"/><path d="M1280 1537c0-146-67-345-163-487-45-66-163-186-233-236-133-95-309-159-472-171l-82-6v-97h49c68 0 204 25 286 53 250 86 464 265 592 498 66 118 123 326 123 445v54h-100v-53z" fill="#f4ee93"/></svg>